<?xml version="1.0" encoding="iso-8859-1"?>
<!-- Generator: Adobe Illustrator 16.0.0, SVG Export Plug-In . SVG Version: 6.00 Build 0)  -->
<!DOCTYPE svg PUBLIC "-//W3C//DTD SVG 1.1//EN" "http://www.w3.org/Graphics/SVG/1.1/DTD/svg11.dtd">
<svg version="1.1" id="Capa_1" xmlns="http://www.w3.org/2000/svg" xmlns:xlink="http://www.w3.org/1999/xlink" x="0px" y="0px"
	 width="464.113px" height="464.113px" viewBox="0 0 464.113 464.113" style="enable-background:new 0 0 464.113 464.113;"
	 xml:space="preserve">
<g>
	<path d="M320.109,160.927H8.727c-4.811,0-8.727,3.91-8.727,8.727v210.314c0,4.811,3.916,8.724,8.727,8.724h311.388
		c4.812,0,8.73-3.913,8.73-8.724V169.654C328.846,164.836,324.927,160.927,320.109,160.927z M115.845,357.223H31.442V341.21h84.402
		V357.223z M115.845,313.141H31.442v-16.007h84.402V313.141z M144.94,267.782H31.442v-16.007H144.94V267.782z M294.462,360.545
		h-12.306c0.732-14.96-6.165-30.671-6.165-30.671c-2.335-5.184-16.568-9.664-16.568-9.664c-7.601-2.678-7.654-5.344-7.654-5.344
		c-14.924,29.412-26.261,0.083-26.261,0.083c-1.041,3.96-16.396,8.618-16.396,8.618c-4.492,1.731-6.386,4.314-6.386,4.314
		c-6.638,9.848-7.412,31.759-7.412,31.759c0,0.337,0.035,0.608,0.065,0.904h-6.78V247.046h105.864V360.545z M306.467,213.216
		c0,4.817-3.919,8.733-8.741,8.733H31.454c-4.823,0-8.739-3.916-8.739-8.733v-15.285c0-4.817,3.916-8.722,8.739-8.722h266.271
		c4.822,0,8.741,3.904,8.741,8.722V213.216z M221.736,299.31c1.149,9.463,9.298,19.269,16.675,19.269
		c8.487,0,16.556-10.309,17.814-19.269c0.484-0.344,1.259-1.165,1.555-3.027c0,0,1.809-6.489-0.604-5.804
		c0.846-2.488,3.618-12.235-1.761-18.288c0,0-2.519-3.439-8.642-5.267l-2.85-0.987c-1.135-0.81-3.404-2.742-3.404-4.882
		c0,0-1.412,0.662-2.246,1.88c0.325-1.005,0.881-1.928,1.762-2.684c0,0-0.928,0.484-1.785,1.525
		c-0.662,0.378-2.193,1.406-2.695,3.262l0.023-0.117c0,0-0.311-0.426-1.155-0.545c-0.843-0.117-2.314,0.449-2.314,0.449
		s-8.919,3.488-11.505,11.503c0,0-1.537,3.635,0.484,14.292c-2.863-1.354-0.913,5.662-0.913,5.662
		C220.483,298.151,221.27,298.966,221.736,299.31z M237.991,262.113c-0.438,0.609-0.805,1.365-0.981,2.282l-0.319-0.118
		C236.927,263.502,237.347,262.763,237.991,262.113z M455.448,75.421h-309.37c-4.788,0-8.674,3.887-8.674,8.674v62.728h173.614
		c11.62,0,21.935,5.568,28.502,14.156h90.429v112.76h-12.218c0.721-14.859-6.124-30.464-6.124-30.464
		c-2.316-5.154-16.461-9.6-16.461-9.6c-7.542-2.659-7.602-5.308-7.602-5.308c-14.824,29.217-26.09,0.083-26.09,0.083
		c-0.815,3.114-10.497,6.649-14.528,7.991v65.272h108.516c4.787,0,8.671-3.884,8.671-8.671V84.096
		C464.119,79.308,460.235,75.421,455.448,75.421z M441.889,127.372c0,4.788-3.89,8.674-8.677,8.674H168.655
		c-4.788,0-8.68-3.886-8.68-8.674v-15.188c0-4.788,3.893-8.665,8.68-8.665H433.2c4.787,0,8.683,3.877,8.683,8.665v15.188H441.889z
		 M356.171,209.897c0.295,1.859,1.075,2.663,1.549,3.008c1.141,9.407,9.232,19.146,16.562,19.146
		c8.429,0,16.45-10.241,17.697-19.146c0.484-0.346,1.253-1.155,1.542-3.008c0,0,1.803-6.446-0.591-5.76
		c0.833-2.482,3.588-12.161-1.749-18.178c0,0-2.507-3.414-8.583-5.228l-2.831-0.981c-1.129-0.81-3.381-2.722-3.381-4.853
		c0,0-1.407,0.653-2.234,1.865c0.319-0.987,0.875-1.915,1.75-2.666c0,0-0.923,0.479-1.773,1.513
		c-0.662,0.375-2.176,1.407-2.684,3.245l0.029-0.121c0,0-0.313-0.417-1.152-0.538c-0.834-0.121-2.3,0.44-2.3,0.44
		s-8.86,3.464-11.425,11.435c0,0-1.531,3.608,0.484,14.201C354.232,202.926,356.171,209.897,356.171,209.897z M373.855,175.955
		c-0.425,0.601-0.804,1.351-0.969,2.27l-0.325-0.121C372.804,177.329,373.218,176.596,373.855,175.955z"/>
</g>
<g>
</g>
<g>
</g>
<g>
</g>
<g>
</g>
<g>
</g>
<g>
</g>
<g>
</g>
<g>
</g>
<g>
</g>
<g>
</g>
<g>
</g>
<g>
</g>
<g>
</g>
<g>
</g>
<g>
</g>
</svg>
