<?xml version="1.0" encoding="iso-8859-1"?>
<!-- Generator: Adobe Illustrator 19.0.0, SVG Export Plug-In . SVG Version: 6.00 Build 0)  -->
<svg version="1.1" id="Layer_1" xmlns="http://www.w3.org/2000/svg" xmlns:xlink="http://www.w3.org/1999/xlink" x="0px" y="0px"
	 viewBox="0 0 512 512" style="enable-background:new 0 0 512 512;" xml:space="preserve">
<g>
	<g>
		<path d="M480.983,88.645h-0.933c-11.6,0-431.329,0-448.1,0C14.333,88.645,0,102.978,0,120.595v270.809
			c0,17.617,14.333,31.95,31.95,31.95c17.185,0,436.934,0,448.1,0h0.933c17.103,0,31.017-13.915,31.017-31.017v-0.933V120.595
			v-0.933C512,102.56,498.085,88.645,480.983,88.645z M304.09,184.698l11.544,11.544l-11.544,11.545
			c-10.228,10.228-10.229,26.871,0,37.102l11.544,11.544l-11.544,11.544c-10.228,10.228-10.229,26.871,0,37.102l11.544,11.544
			L304.09,328.17c-10.228,10.228-10.229,26.871,0,37.102l11.544,11.544c-12.642,12.64-12.025,11.968-13.132,13.292H33.247V121.892
			h268.565c1.46,1.908,1.215,1.552,13.823,14.16l-11.545,11.545C293.861,157.826,293.861,174.471,304.09,184.698z M478.753,390.109
			H348.172c5.904-10.052,4.547-23.224-4.07-31.844l-11.544-11.544l11.544-11.544c10.228-10.228,10.229-26.872,0-37.102
			l-11.544-11.544l11.544-11.544c10.228-10.228,10.229-26.872,0-37.102l-11.544-11.544l11.544-11.544
			c4.955-4.955,7.684-11.543,7.684-18.552c0-7.007-2.728-13.596-7.684-18.551l-11.544-11.544l11.545-11.545
			c8.867-8.869,10.046-22.559,3.537-32.71h131.113V390.109z"/>
	</g>
</g>
<g>
	<g>
		<path d="M205.034,244.048c-18.932,0-33.409,8.018-33.409,30.067v31.628c0,22.049,14.477,30.067,33.409,30.067
			c18.709,0,33.409-8.018,33.409-30.067v-31.628C238.442,252.066,223.743,244.048,205.034,244.048z M205.034,316.433
			c-6.904,0-10.914-3.341-10.914-10.69v-31.628c0-7.35,4.008-10.69,10.914-10.69c6.904,0,11.137,3.341,11.137,10.69v31.628h0
			C216.17,313.093,211.938,316.433,205.034,316.433z"/>
	</g>
</g>
<g>
	<g>
		<path d="M192.115,163.2c-4.008,0-7.573,1.781-9.354,5.568l-78.175,160.584c-0.668,1.336-1.114,2.895-1.114,4.231
			c0,5.568,4.899,11.804,12.472,11.804c4.232,0,8.464-2.228,10.023-5.568l78.399-160.584c0.668-1.335,0.89-2.895,0.89-4.231
			C205.255,167.877,198.351,163.2,192.115,163.2z"/>
	</g>
</g>
<g>
	<g>
		<path d="M102.803,172.332c-18.932,0-33.409,8.018-33.409,30.067v31.627c0,22.049,14.477,30.068,33.409,30.068
			c18.709,0,33.409-8.019,33.409-30.068v-31.627C136.212,180.35,121.512,172.332,102.803,172.332z M113.94,234.026
			c0,7.35-4.231,10.691-11.137,10.691c-6.904,0-10.914-3.341-10.914-10.691v-31.627c0-7.35,4.01-10.69,10.914-10.69
			s11.137,3.341,11.137,10.69V234.026z"/>
	</g>
</g>
<g>
</g>
<g>
</g>
<g>
</g>
<g>
</g>
<g>
</g>
<g>
</g>
<g>
</g>
<g>
</g>
<g>
</g>
<g>
</g>
<g>
</g>
<g>
</g>
<g>
</g>
<g>
</g>
<g>
</g>
</svg>
